<svg width="36" height="36" viewBox="0 0 36 36" fill="none" xmlns="http://www.w3.org/2000/svg">
<path d="M11.25 9C10.9516 9 10.6655 9.11853 10.4545 9.32951C10.2435 9.54048 10.125 9.82663 10.125 10.125C10.125 10.4234 10.2435 10.7095 10.4545 10.9205C10.6655 11.1315 10.9516 11.25 11.25 11.25H24.75C25.0484 11.25 25.3345 11.1315 25.5455 10.9205C25.7565 10.7095 25.875 10.4234 25.875 10.125C25.875 9.82663 25.7565 9.54048 25.5455 9.32951C25.3345 9.11853 25.0484 9 24.75 9H11.25ZM10.125 14.625C10.125 14.3266 10.2435 14.0405 10.4545 13.8295C10.6655 13.6185 10.9516 13.5 11.25 13.5H24.75C25.0484 13.5 25.3345 13.6185 25.5455 13.8295C25.7565 14.0405 25.875 14.3266 25.875 14.625C25.875 14.9234 25.7565 15.2095 25.5455 15.4205C25.3345 15.6315 25.0484 15.75 24.75 15.75H11.25C10.9516 15.75 10.6655 15.6315 10.4545 15.4205C10.2435 15.2095 10.125 14.9234 10.125 14.625ZM11.25 18C10.9516 18 10.6655 18.1185 10.4545 18.3295C10.2435 18.5405 10.125 18.8266 10.125 19.125C10.125 19.4234 10.2435 19.7095 10.4545 19.9205C10.6655 20.1315 10.9516 20.25 11.25 20.25H24.75C25.0484 20.25 25.3345 20.1315 25.5455 19.9205C25.7565 19.7095 25.875 19.4234 25.875 19.125C25.875 18.8266 25.7565 18.5405 25.5455 18.3295C25.3345 18.1185 25.0484 18 24.75 18H11.25ZM11.25 22.5C10.9516 22.5 10.6655 22.6185 10.4545 22.8295C10.2435 23.0405 10.125 23.3266 10.125 23.625C10.125 23.9234 10.2435 24.2095 10.4545 24.4205C10.6655 24.6315 10.9516 24.75 11.25 24.75H18C18.2984 24.75 18.5845 24.6315 18.7955 24.4205C19.0065 24.2095 19.125 23.9234 19.125 23.625C19.125 23.3266 19.0065 23.0405 18.7955 22.8295C18.5845 22.6185 18.2984 22.5 18 22.5H11.25Z" fill="#2F5349"/>
<path d="M4.5 4.5C4.5 3.30653 4.97411 2.16193 5.81802 1.31802C6.66193 0.474106 7.80653 0 9 0L27 0C28.1935 0 29.3381 0.474106 30.182 1.31802C31.0259 2.16193 31.5 3.30653 31.5 4.5V31.5C31.5 32.6935 31.0259 33.8381 30.182 34.682C29.3381 35.5259 28.1935 36 27 36H9C7.80653 36 6.66193 35.5259 5.81802 34.682C4.97411 33.8381 4.5 32.6935 4.5 31.5V4.5ZM27 2.25H9C8.40326 2.25 7.83097 2.48705 7.40901 2.90901C6.98705 3.33097 6.75 3.90326 6.75 4.5V31.5C6.75 32.0967 6.98705 32.669 7.40901 33.091C7.83097 33.5129 8.40326 33.75 9 33.75H27C27.5967 33.75 28.169 33.5129 28.591 33.091C29.0129 32.669 29.25 32.0967 29.25 31.5V4.5C29.25 3.90326 29.0129 3.33097 28.591 2.90901C28.169 2.48705 27.5967 2.25 27 2.25Z" fill="#2F5349"/>
</svg>
