<svg width="151" height="40" viewBox="0 0 151 40" fill="none" xmlns="http://www.w3.org/2000/svg">
<g clip-path="url(#clip0)">
<path d="M41.2791 27.2952H40.8676C40.7908 27.2952 40.7305 27.2294 40.7305 27.1472V21.8581C40.7305 21.7813 40.7798 21.7155 40.8676 21.7155H41.2791C41.3559 21.7155 41.4163 21.7758 41.4163 21.8581V27.1472C41.4163 27.2184 41.3614 27.2952 41.2791 27.2952Z" fill="white"/>
<path d="M46.3868 27.2951H45.9205C45.7998 27.2951 45.7175 27.2513 45.6791 27.1746L43.3529 22.7624C43.3474 22.746 43.3364 22.7405 43.331 22.7405C43.3255 22.7405 43.3255 22.746 43.3255 22.7624V27.1526C43.3255 27.2294 43.2651 27.2951 43.1938 27.2951H42.8043C42.7275 27.2951 42.6671 27.2787 42.6671 27.202V21.9183C42.6671 21.7977 42.7659 21.7101 42.8866 21.7101H43.3035C43.512 21.7101 43.5504 21.7484 43.6108 21.8635L45.9205 26.2538L45.937 26.2757C45.9424 26.2757 45.9424 26.2592 45.9424 26.2538V21.858C45.9424 21.7813 46.0028 21.7155 46.0796 21.7155H46.4801C46.5624 21.7155 46.6173 21.7813 46.6173 21.858V27.0814C46.6063 27.1965 46.5075 27.2951 46.3868 27.2951Z" fill="white"/>
<path d="M49.0971 27.3445C48.5704 27.3445 48.1809 27.2897 47.8462 27.2404C47.72 27.2184 47.7036 27.1855 47.7036 27.1033V26.8019C47.7036 26.7197 47.7639 26.6813 47.8298 26.6813H47.8517C48.1973 26.7142 48.746 26.7251 49.0916 26.7251C49.9969 26.7251 50.2382 26.3634 50.2382 25.8372C50.2382 25.459 50.0188 25.2508 49.333 24.8287L48.6088 24.3903C47.9175 23.9682 47.5719 23.5846 47.5719 22.9817C47.5719 22.0718 48.2248 21.6498 49.3714 21.6498C49.8158 21.6498 50.3973 21.6936 50.6826 21.7375C50.7594 21.7539 50.8088 21.7923 50.8088 21.8635V22.1869C50.8088 22.2636 50.754 22.3075 50.6826 22.3075H50.6662C50.337 22.2856 49.8103 22.2636 49.3714 22.2636C48.5978 22.2636 48.2687 22.4281 48.2687 22.9762C48.2687 23.327 48.5155 23.5407 49.0861 23.886L49.7774 24.3026C50.6497 24.8233 50.957 25.2343 50.957 25.8317C50.957 26.5662 50.5784 27.3445 49.0971 27.3445Z" fill="white"/>
<path d="M55.3624 22.2965H53.8976V27.1472C53.8976 27.2239 53.8427 27.2951 53.7604 27.2951H53.3489C53.2721 27.2951 53.2173 27.2294 53.2173 27.1472V22.2965H51.7469C51.6646 22.2965 51.5933 22.2581 51.5933 22.1759V21.8471C51.5933 21.7703 51.6592 21.7101 51.7469 21.7101H55.3679C55.4502 21.7101 55.5106 21.7649 55.5106 21.8471V22.1759C55.5051 22.2527 55.4447 22.2965 55.3624 22.2965Z" fill="white"/>
<path d="M56.9809 27.2952H56.5695C56.4927 27.2952 56.4323 27.2294 56.4323 27.1472V21.8581C56.4323 21.7813 56.4872 21.7155 56.5695 21.7155H56.9809C57.0577 21.7155 57.1181 21.7758 57.1181 21.8581V27.1472C57.1181 27.2184 57.0632 27.2952 56.9809 27.2952Z" fill="white"/>
<path d="M61.8144 22.2965H60.3495V27.1472C60.3495 27.2239 60.2947 27.2951 60.2124 27.2951H59.8009C59.7241 27.2951 59.6638 27.2294 59.6638 27.1472V22.2965H58.1934C58.1111 22.2965 58.0453 22.2581 58.0453 22.1759V21.8471C58.0453 21.7703 58.1111 21.7101 58.1934 21.7101H61.8144C61.8967 21.7101 61.957 21.7649 61.957 21.8471V22.1759C61.957 22.2527 61.8967 22.2965 61.8144 22.2965Z" fill="white"/>
<path d="M64.7112 27.3445C63.4932 27.3445 62.7855 26.6977 62.7855 25.2617V21.8471C62.7855 21.7703 62.8458 21.7046 62.9281 21.7046H63.3341C63.4109 21.7046 63.4767 21.7649 63.4767 21.8471V25.2617C63.4767 26.2318 63.7785 26.758 64.7112 26.758C65.6438 26.758 65.9456 26.2373 65.9456 25.2617V21.8471C65.9456 21.7703 66.0059 21.7046 66.0882 21.7046H66.4942C66.5655 21.7046 66.6369 21.7649 66.6369 21.8471V25.2617C66.6369 26.6977 65.9291 27.3445 64.7112 27.3445Z" fill="white"/>
<path d="M71.2344 22.2965H69.764V27.1472C69.764 27.2239 69.7092 27.2951 69.6269 27.2951H69.2154C69.1386 27.2951 69.0782 27.2294 69.0782 27.1472V22.2965H67.6079C67.5256 22.2965 67.4598 22.2581 67.4598 22.1759V21.8471C67.4598 21.7703 67.5256 21.7101 67.6079 21.7101H71.2289C71.3112 21.7101 71.3715 21.7649 71.3715 21.8471V22.1759C71.377 22.2527 71.3167 22.2965 71.2344 22.2965Z" fill="white"/>
<path d="M74.0293 27.4284C72.8498 27.4284 71.9884 26.7378 71.9884 25.0716V24.1014C71.9884 22.4352 72.8443 21.7391 74.0293 21.7391C75.2089 21.7391 76.0592 22.4297 76.0592 24.1014V25.0716C76.0592 26.7378 75.2089 27.4284 74.0293 27.4284ZM75.368 24.1014C75.368 22.8408 74.8577 22.3585 74.0293 22.3585C73.2119 22.3585 72.6852 22.8408 72.6852 24.1014V25.0716C72.6852 26.3322 73.2009 26.8145 74.0293 26.8145C74.8523 26.8145 75.368 26.3322 75.368 25.0716V24.1014Z" fill="white"/>
<path d="M46.0522 38.7284C45.6407 38.8161 44.6751 38.8929 44.0058 38.8929C42.3873 38.8929 40.9499 38.4818 40.9499 36.2017V29.7177C40.9499 29.5807 41.0596 29.4656 41.2023 29.4656H42.8427C42.9798 29.4656 43.095 29.5752 43.095 29.7177V36.1962C43.095 36.8485 43.309 37.0458 43.896 37.0458H46.0522C46.1893 37.0458 46.3045 37.1609 46.3045 37.2979V38.4599C46.2991 38.6298 46.2277 38.6901 46.0522 38.7284Z" fill="white"/>
<path d="M52.6961 38.7284C52.2572 38.7942 51.6153 38.8928 50.2602 38.8928C48.6417 38.8928 47.2153 38.4818 47.2153 36.2017V32.0416C47.2153 29.7616 48.6582 29.3615 50.2766 29.3615C51.6318 29.3615 52.2572 29.4601 52.6961 29.5259C52.8717 29.5533 52.9485 29.6136 52.9485 29.778V30.94C52.9485 31.077 52.8333 31.1921 52.6961 31.1921H50.1505C49.5634 31.1921 49.3495 31.3894 49.3495 32.0416V33.1817H52.5974C52.7345 33.1817 52.8497 33.2913 52.8497 33.4338V34.6232C52.8497 34.7602 52.74 34.8753 52.5974 34.8753H49.3495V36.2017C49.3495 36.8539 49.5634 37.0512 50.1505 37.0512H52.6961C52.8333 37.0512 52.9485 37.1663 52.9485 37.3034V38.4653C52.9485 38.6297 52.8717 38.701 52.6961 38.7284Z" fill="white"/>
<path d="M58.0233 38.8874C55.955 38.8874 54.3146 37.7747 54.3146 34.8643V33.379C54.3146 30.4741 55.955 29.356 58.0233 29.356C60.0917 29.356 61.7376 30.4686 61.7376 33.379V34.8698C61.7376 37.7747 60.0972 38.8874 58.0233 38.8874ZM59.5814 33.379C59.5814 31.8772 59.0822 31.236 58.0288 31.236C56.9754 31.236 56.4872 31.8772 56.4872 33.379V34.8698C56.4872 36.3716 56.9754 37.0129 58.0288 37.0129C59.0822 37.0129 59.5814 36.3716 59.5814 34.8698V33.379Z" fill="white"/>
<path d="M70.1755 38.7777H68.9466C68.6833 38.7777 68.4967 38.7284 68.2937 38.3886L65.4354 33.4503C65.386 33.3735 65.3586 33.3516 65.3256 33.3516C65.2872 33.3516 65.2653 33.3735 65.2653 33.4503V38.5256C65.2653 38.6626 65.1501 38.7777 65.0129 38.7777H63.5316C63.3945 38.7777 63.2792 38.6681 63.2792 38.5256V29.9425C63.2792 29.6794 63.4932 29.4656 63.7565 29.4656H65.0239C65.2763 29.4656 65.4024 29.5917 65.5506 29.8548L68.5242 35.0178C68.5735 35.0945 68.59 35.1165 68.6229 35.1165C68.6449 35.1165 68.6833 35.0891 68.6833 35.0069V29.7068C68.6833 29.5697 68.793 29.4711 68.9356 29.4711H70.4169C70.5541 29.4711 70.6638 29.5697 70.6638 29.7068V38.3009C70.6638 38.564 70.4389 38.7777 70.1755 38.7777Z" fill="white"/>
<path d="M79.4803 38.7777H77.7247C77.5985 38.7777 77.4998 38.6791 77.4723 38.553L77.0224 36.4977H74.4494L73.9995 38.553C73.9721 38.6791 73.8733 38.7777 73.7471 38.7777H71.9915C71.8653 38.7777 71.7775 38.701 71.7775 38.5749C71.7775 38.564 71.7885 38.5366 71.7885 38.5147L73.6593 30.7481C73.9501 29.5478 74.8773 29.356 75.7441 29.356C76.611 29.356 77.5217 29.5423 77.8125 30.7481L79.6778 38.5147C79.6778 38.5366 79.6943 38.564 79.6943 38.5749C79.6943 38.701 79.6065 38.7777 79.4803 38.7777ZM75.9087 31.3236C75.8813 31.1976 75.8593 31.1318 75.7441 31.1318C75.6289 31.1318 75.5905 31.1976 75.5686 31.3236L74.806 34.7821H76.6768L75.9087 31.3236Z" fill="white"/>
<path d="M87.8195 38.7777H85.8993C85.7622 38.7777 85.7128 38.6517 85.647 38.5256L83.9681 35.3576L83.831 35.3686C83.5676 35.3686 83.1781 35.3412 82.9422 35.3412V38.5256C82.9422 38.6626 82.827 38.7777 82.6898 38.7777H81.0604C80.9232 38.7777 80.808 38.6681 80.808 38.5256V30.1233C80.808 29.6958 80.9836 29.5862 81.3731 29.5204C81.9492 29.4327 83.0135 29.356 83.9188 29.356C86.0529 29.356 87.6934 30.0685 87.6934 32.2883V32.4472C87.6934 33.7791 86.9911 34.5903 86.0749 34.952L87.9677 38.4873C87.9951 38.5366 88.0061 38.5859 88.0061 38.6243C88.0116 38.712 87.9567 38.7777 87.8195 38.7777ZM85.5647 32.2883C85.5647 31.521 84.9721 31.1702 83.9242 31.1702C83.7487 31.1702 83.0958 31.1976 82.9477 31.2085V33.6147C83.0848 33.6256 83.6993 33.6366 83.8365 33.6366C85.1532 33.6366 85.5647 33.3023 85.5647 32.4472V32.2883Z" fill="white"/>
<path d="M92.3732 38.8874C91.3308 38.8874 90.217 38.7887 89.7013 38.701C89.4654 38.6626 89.3392 38.553 89.3392 38.2625V29.9808C89.3392 29.6903 89.4654 29.5807 89.7013 29.5423C90.217 29.4546 91.3308 29.356 92.3732 29.356C94.8694 29.356 96.3727 30.6714 96.3727 33.3132V34.9301C96.3727 37.5719 94.8694 38.8874 92.3732 38.8874ZM94.2275 33.3132C94.2275 31.6196 93.4979 31.1702 92.3732 31.1702C92.0604 31.1702 91.6545 31.1811 91.4844 31.1976V37.0512C91.6599 37.0622 92.0604 37.0732 92.3732 37.0732C93.4979 37.0732 94.2275 36.6237 94.2275 34.9301V33.3132Z" fill="white"/>
<path d="M101.387 38.8874C99.3189 38.8874 97.673 37.7747 97.673 34.8643V33.379C97.673 30.4741 99.3134 29.356 101.387 29.356C103.456 29.356 105.101 30.4686 105.101 33.379V34.8698C105.101 37.7747 103.461 38.8874 101.387 38.8874ZM102.945 33.379C102.945 31.8772 102.441 31.236 101.393 31.236C100.339 31.236 99.851 31.8772 99.851 33.379V34.8698C99.851 36.3716 100.339 37.0129 101.393 37.0129C102.446 37.0129 102.945 36.3716 102.945 34.8698V33.379Z" fill="white"/>
<path d="M111.734 34.4314H107.883V38.5256C107.883 38.6626 107.768 38.7777 107.631 38.7777H106.989C106.852 38.7777 106.736 38.6681 106.736 38.5256V31.7128C106.736 30.0466 107.653 29.3834 109.408 29.3834C110.149 29.3834 111.328 29.4108 111.855 29.4601C111.932 29.4711 111.981 29.5588 111.981 29.6355V30.2603C111.981 30.348 111.932 30.4083 111.844 30.4083H109.425C108.097 30.4083 107.883 30.7591 107.883 31.7128V33.4557H111.734C111.872 33.4557 111.987 33.5708 111.987 33.7079V34.1847C111.987 34.3163 111.872 34.4314 111.734 34.4314Z" fill="white"/>
<path d="M119.86 38.7777H119.059C118.91 38.7777 118.834 38.7777 118.729 38.6133L116.486 34.8808H116.376H116.162C115.75 34.8808 115.449 34.8698 114.785 34.8424V38.5256C114.785 38.6517 114.697 38.7777 114.56 38.7777H113.885C113.759 38.7777 113.66 38.6626 113.66 38.5256V29.7561C113.66 29.5807 113.737 29.504 113.962 29.482C114.5 29.4218 115.443 29.3834 116.167 29.3834C118.148 29.3834 119.679 30.0466 119.679 32.0745V32.1622C119.679 33.5654 118.85 34.393 117.709 34.6944L119.991 38.5037C120.019 38.5421 120.03 38.5804 120.03 38.6188C120.024 38.701 119.964 38.7777 119.86 38.7777ZM118.543 32.0745C118.543 30.8249 117.725 30.4083 116.162 30.4083C115.772 30.4083 115.081 30.4083 114.785 30.4467V33.8778C115.339 33.8942 115.877 33.9052 116.162 33.9052C117.704 33.9052 118.543 33.516 118.543 32.1622V32.0745Z" fill="white"/>
<path d="M127.875 38.7777H127.135C127.019 38.7777 126.948 38.6901 126.921 38.5914L126.103 35.7084H122.855L122.054 38.5914C122.027 38.6901 121.928 38.7777 121.829 38.7777H121.089C120.962 38.7777 120.875 38.6901 120.875 38.5804C120.875 38.5585 120.875 38.5201 120.886 38.4927L123.206 30.3371C123.42 29.5752 124.007 29.3834 124.485 29.3834C124.951 29.3834 125.538 29.5588 125.752 30.3261L128.073 38.4927C128.084 38.5201 128.084 38.553 128.084 38.5804C128.089 38.6901 128.012 38.7777 127.875 38.7777ZM124.726 30.5947C124.688 30.4577 124.611 30.37 124.485 30.37C124.347 30.37 124.271 30.4577 124.232 30.5947L123.091 34.7164H125.862L124.726 30.5947Z" fill="white"/>
<path d="M135.638 38.7778H134.859C134.656 38.7778 134.519 38.701 134.459 38.5804L130.58 31.225C130.569 31.2031 130.558 31.1866 130.541 31.1866C130.531 31.1866 130.531 31.1976 130.531 31.225V38.5421C130.531 38.6681 130.432 38.7778 130.306 38.7778H129.653C129.527 38.7778 129.428 38.7558 129.428 38.6298V29.8219C129.428 29.6191 129.592 29.4711 129.79 29.4711H130.481C130.832 29.4711 130.893 29.5314 130.997 29.7232L134.848 37.0403L134.87 37.0787C134.881 37.0787 134.881 37.0567 134.881 37.0403V29.7068C134.881 29.5807 134.98 29.4711 135.106 29.4711H135.77C135.907 29.4711 135.995 29.5807 135.995 29.7068V38.416C136 38.6133 135.836 38.7778 135.638 38.7778Z" fill="white"/>
<path d="M143.122 38.701C142.595 38.7997 142.107 38.8654 141.042 38.8654C139.501 38.8654 137.734 38.0378 137.734 34.9959V33.2529C137.734 30.1836 139.501 29.3834 141.042 29.3834C141.832 29.3834 142.595 29.4985 143.149 29.5807C143.259 29.5917 143.352 29.63 143.352 29.7451V30.3809C143.352 30.4577 143.325 30.5179 143.204 30.5179H143.166C142.716 30.4796 141.788 30.4083 141.059 30.4083C139.83 30.4083 138.875 31.1209 138.875 33.2529V34.9959C138.875 37.1006 139.83 37.8405 141.059 37.8405C141.772 37.8405 142.677 37.7802 143.127 37.7418H143.177C143.314 37.7418 143.374 37.8076 143.374 37.9446V38.4599C143.374 38.6024 143.259 38.6791 143.122 38.701Z" fill="white"/>
<path d="M147.615 38.8654C145.645 38.8654 144.219 37.7144 144.219 34.9356V33.3187C144.219 30.5399 145.651 29.3834 147.615 29.3834C149.585 29.3834 151 30.5399 151 33.3187V34.9356C151 37.7144 149.585 38.8654 147.615 38.8654ZM149.848 33.3132C149.848 31.2085 148.998 30.4083 147.615 30.4083C146.249 30.4083 145.371 31.2085 145.371 33.3132V34.9301C145.371 37.0348 146.238 37.835 147.615 37.835C148.981 37.835 149.848 37.0348 149.848 34.9301V33.3132Z" fill="white"/>
<path d="M9.07436 16.8539C8.97561 16.9142 8.88783 16.98 8.80005 17.0293C8.80005 17.0293 8.80553 17.0239 8.81102 17.0184L9.06339 16.8539C9.06888 16.8539 9.06888 16.8539 9.07436 16.8539Z" fill="white"/>
<path d="M9.14571 19.0025C9.04695 18.9641 8.95369 18.9148 8.86591 18.8545L9.14571 19.0025Z" fill="white"/>
<path d="M12.8325 20.9975C12.7557 20.9647 12.6789 20.9263 12.613 20.877L12.8325 20.9975Z" fill="white"/>
<path d="M9.22802 12.65V13.2036L5.7442 15.4727V12.65C5.7442 11.6909 6.52326 10.9071 7.48885 10.9071C8.44896 10.9071 9.22802 11.6854 9.22802 12.65Z" fill="white"/>
<path d="M43.4352 13.2858C43.4352 14.2286 42.6671 14.9904 41.729 14.9904C41.4053 14.9904 41.1035 14.9027 40.8402 14.7438C40.8127 14.7273 40.7853 14.7109 40.7634 14.6944L30.6246 7.98027L29.4067 7.17457L25.654 4.68622C25.654 4.68622 25.4565 4.5766 25.3139 4.48342C25.3029 4.47246 25.2919 4.46698 25.281 4.4615C25.1767 4.39572 25.0615 4.32995 24.9463 4.28062C24.6391 4.13812 24.2989 4.06139 23.9423 4.06139C23.9204 4.06139 23.9039 4.06139 23.882 4.06687C23.5363 4.07235 23.2071 4.15456 22.9164 4.29159C22.856 4.31899 22.8011 4.3464 22.7518 4.37928C22.6969 4.41217 22.642 4.44505 22.5927 4.47246C22.5927 4.47794 22.5927 4.47794 22.5927 4.47794C22.4939 4.53275 22.4116 4.59852 22.3293 4.66977L9.22799 13.2036V12.65C9.22799 11.6909 8.44893 10.9071 7.48883 10.9071C6.52324 10.9071 5.74418 11.6854 5.74418 12.65V15.4727L3.02845 17.2431L2.34815 17.687C2.16161 17.7528 1.9641 17.7912 1.75562 17.7912C1.59103 17.7912 1.42644 17.7693 1.27283 17.7254C1.22894 17.7144 1.18505 17.698 1.14115 17.6816C0.987538 17.6267 0.844893 17.55 0.718708 17.4514C0.68579 17.4294 0.647386 17.402 0.614468 17.3691C0.235912 17.0567 0 16.5744 0 16.0428C0 15.5549 0.192021 15.1165 0.504742 14.8041C0.713222 14.667 0.927188 14.53 1.15213 14.3765C7.75217 10.085 22.3513 0.5755 22.3513 0.5755L22.856 0.246643C22.867 0.235681 22.8834 0.235681 22.8944 0.224719C23.2071 0.0822143 23.5528 0 23.9204 0C24.2825 0 24.6171 0.0767334 24.9244 0.219238C25.0286 0.268567 25.1328 0.317895 25.2261 0.378186C25.2316 0.383667 25.2371 0.383667 25.2426 0.389148C25.2535 0.394629 25.27 0.405591 25.281 0.416552C25.2865 0.416552 25.2865 0.422033 25.2919 0.422033C25.3797 0.476843 25.5333 0.580981 25.5827 0.613867C25.5882 0.613867 26.263 1.05782 27.3877 1.79775C28.3314 2.42258 29.5987 3.25569 31.0581 4.22582C34.3389 6.39627 38.6018 9.21348 42.4202 11.7292C42.5848 11.8389 42.7439 11.9485 42.903 12.0526C43.2322 12.3595 43.4352 12.798 43.4352 13.2858Z" fill="white"/>
<path d="M40.9224 18.0872C40.9224 18.3228 40.8292 18.5366 40.6755 18.701C40.5823 18.7997 40.4616 18.8764 40.3299 18.9257C40.2366 18.9586 40.1324 18.9751 40.0282 18.9751C39.9459 18.9751 39.8636 18.9641 39.7868 18.9422C39.7703 18.9367 39.7538 18.9312 39.7374 18.9257L39.3643 18.6846L34.3334 15.3741C34.3334 15.3741 34.2181 15.3083 34.1413 15.259C34.0865 15.2261 34.0316 15.1932 33.9713 15.1658C33.8176 15.0946 33.6421 15.0562 33.461 15.0562C33.2745 15.0562 33.0989 15.1 32.9398 15.1713C32.9124 15.1822 32.885 15.1987 32.8575 15.2151C32.8301 15.2316 32.8027 15.248 32.7752 15.2645C32.7314 15.2919 32.6875 15.3302 32.6436 15.3631L23.1358 21.5566L22.8395 21.7484L22.4939 21.9732C22.4006 22.006 22.2964 22.028 22.1921 22.028C22.1098 22.028 22.0221 22.017 21.9507 21.9951C21.9288 21.9896 21.9068 21.9841 21.8849 21.9732C21.8081 21.9457 21.7368 21.9074 21.6709 21.8581C21.6545 21.8471 21.638 21.8306 21.6161 21.8197C21.424 21.6607 21.3033 21.4141 21.3033 21.14C21.3033 20.8989 21.3966 20.6796 21.5502 20.5207C21.5502 20.5152 21.5557 20.5152 21.5612 20.5097C21.6654 20.4385 21.7752 20.3672 21.8904 20.296C25.237 18.1146 32.6545 13.2858 32.6545 13.2858L32.9124 13.1159C32.9179 13.1104 32.9234 13.1104 32.9289 13.105C33.088 13.0337 33.2635 12.9899 33.4501 12.9899C33.6311 12.9899 33.8067 13.0282 33.9603 13.0995C34.0152 13.1214 34.0645 13.1488 34.1139 13.1817C34.1139 13.1817 34.1194 13.1872 34.1249 13.1872C34.1304 13.1872 34.1358 13.1927 34.1413 13.1981C34.1413 13.1981 34.1468 13.1981 34.1468 13.2036C34.1907 13.2365 34.2675 13.2858 34.295 13.3023C34.3169 13.3023 37.274 15.2425 40.3299 17.2486C40.4451 17.3198 40.5603 17.3966 40.6701 17.4733C40.8292 17.6322 40.9224 17.8515 40.9224 18.0872Z" fill="white"/>
<path d="M24.2495 22.1102C24.074 22.0937 23.8929 22.0828 23.7173 22.0828C23.0041 22.0828 22.3238 22.2253 21.6984 22.4884L19.641 21.1346C19.641 21.1346 19.5258 21.0688 19.449 21.0195C19.3996 20.9866 19.3393 20.9537 19.2789 20.9318C19.1198 20.8605 18.9497 20.8222 18.7742 20.8222C18.5876 20.8222 18.4121 20.866 18.253 20.9373C18.2255 20.9482 18.1926 20.9647 18.1707 20.9811C18.1432 20.9975 18.1158 21.014 18.0884 21.0304C18.0445 21.0578 18.0006 21.0962 17.9622 21.1291L8.213 27.476L7.86736 27.7007C7.77409 27.7336 7.67534 27.7556 7.56561 27.7556C7.48331 27.7556 7.40102 27.7446 7.32421 27.7227C7.30227 27.7172 7.28032 27.7062 7.25838 27.7007C7.18157 27.6733 7.11024 27.635 7.04441 27.5857C7.02795 27.5747 7.006 27.5582 6.99503 27.5473C6.80301 27.3883 6.68231 27.1472 6.68231 26.8731C6.68231 26.6265 6.78107 26.4072 6.93468 26.2483C7.03892 26.1825 7.14865 26.1058 7.26386 26.0345C10.5941 23.8696 17.9622 19.0628 17.9622 19.0628L18.22 18.8983C18.2255 18.8929 18.231 18.8929 18.2365 18.8874C18.3956 18.8161 18.5657 18.7723 18.7522 18.7723C18.9333 18.7723 19.1088 18.8106 19.2624 18.8819C19.3173 18.9093 19.3667 18.9312 19.4161 18.9641C19.4161 18.9696 19.4216 18.9696 19.4216 18.9696C19.427 18.9751 19.4325 18.9806 19.4435 18.986C19.4435 18.986 19.4435 18.986 19.449 18.9915C19.4929 19.0189 19.5752 19.0737 19.5971 19.0847C19.6081 19.0847 20.3926 19.5944 21.5722 20.3672C21.4021 20.5426 21.2979 20.7838 21.2979 21.0524C21.2979 21.3538 21.4295 21.6224 21.649 21.8032C21.6655 21.8197 21.6874 21.8361 21.7093 21.8471C21.7807 21.9019 21.863 21.9457 21.9453 21.9732C21.9672 21.9841 21.9946 21.9951 22.0166 22.0006C22.1044 22.028 22.1921 22.0389 22.2854 22.0389C22.4006 22.0389 22.5158 22.017 22.6201 21.9786L23.0041 21.732L23.3333 21.5182C23.6296 21.7046 23.9368 21.9074 24.2495 22.1102Z" fill="white"/>
<path d="M21.7094 21.8361C21.6874 21.8252 21.671 21.8087 21.649 21.7923C21.4351 21.6114 21.2979 21.3428 21.2979 21.0414C21.2979 20.7728 21.4022 20.5317 21.5722 20.3563C22.0934 20.6961 22.686 21.0852 23.3279 21.5018L22.9987 21.7155L22.6146 21.9622C22.5104 22.0005 22.4007 22.0225 22.28 22.0225C22.1867 22.0225 22.0934 22.0115 22.0111 21.9841C21.9892 21.9786 21.9618 21.9677 21.9398 21.9567C21.863 21.9348 21.7807 21.8964 21.7094 21.8361Z" fill="white"/>
<path d="M26.1917 23.8367C26.1917 23.9463 26.1698 24.0559 26.1314 24.1546C25.879 23.9627 25.6047 23.7983 25.3084 23.6668C25.2097 23.6229 25.1164 23.5845 25.0176 23.5517C24.9683 23.5352 24.9134 23.5133 24.8531 23.4969C24.7598 23.4694 24.672 23.4475 24.5787 23.4311C24.5623 23.4256 24.5513 23.4201 24.5349 23.4201C24.4416 23.4037 24.3538 23.3818 24.2605 23.3708C24.0795 23.3489 23.8984 23.3324 23.7119 23.3324C23.5912 23.3324 23.4705 23.3379 23.3498 23.3489C23.2511 23.3598 23.1578 23.3708 23.0645 23.3872L22.3513 22.9159L21.6984 22.4884C22.3239 22.2253 23.0097 22.0828 23.7174 22.0828C23.8984 22.0828 24.074 22.0882 24.2496 22.1102C24.694 22.4007 25.1438 22.6966 25.5992 22.9981C25.7144 23.0693 25.8296 23.1461 25.9393 23.2228C25.9778 23.2612 26.0052 23.2995 26.0326 23.3379C26.1314 23.4804 26.1917 23.6503 26.1917 23.8367Z" fill="white"/>
<path d="M24.0246 12.3102C24.0246 12.6062 23.7832 12.8419 23.4924 12.8419C23.1962 12.8419 22.9603 12.6007 22.9603 12.3102C22.9603 12.0142 23.2017 11.7786 23.4924 11.7786C23.7887 11.7786 24.0246 12.0142 24.0246 12.3102Z" fill="white"/>
<path d="M22.3568 12.3102C22.3568 12.6062 22.1154 12.8419 21.8246 12.8419H14.4894C14.1931 12.8419 13.9572 12.6007 13.9572 12.3102C13.9572 12.0142 14.1986 11.7786 14.4894 11.7786H21.8246C22.1209 11.7786 22.3568 12.0142 22.3568 12.3102Z" fill="white"/>
<path d="M25.7747 14.1189C25.7747 14.4149 25.5388 14.6561 25.2426 14.6561H17.9074C17.6111 14.6561 17.3752 14.4149 17.3752 14.1189C17.3752 13.823 17.6111 13.5873 17.9074 13.5873H25.2426C25.5388 13.5873 25.7747 13.823 25.7747 14.1189Z" fill="white"/>
<path d="M27.4975 10.3207C27.4975 10.6166 27.2561 10.8578 26.9598 10.8578H19.6301C19.3338 10.8578 19.0979 10.6166 19.0979 10.3207C19.0979 10.0247 19.3393 9.789 19.6301 9.789H26.9653C27.2615 9.789 27.4975 10.0302 27.4975 10.3207Z" fill="white"/>
<path d="M38.6841 38.2625C38.6841 39.2217 37.905 40 36.9394 40H7.48885C6.52326 40 5.7442 39.2217 5.7442 38.2625V12.65C5.7442 11.6909 6.52326 10.9071 7.48885 10.9071C8.44896 10.9071 9.22802 11.6854 9.22802 12.65V36.5196H16.7937V38.1474H30.6411V36.7388C30.6411 36.6895 30.6411 36.6457 30.6356 36.5963V36.5744C30.6356 36.558 30.6356 36.536 30.6302 36.5196H36.9449C37.905 36.5196 38.6841 37.2979 38.6841 38.2625Z" fill="white"/>
<path d="M30.2955 25.333C29.7139 25.333 29.1708 25.4864 28.7044 25.755C28.5124 25.8646 28.3313 25.9962 28.1668 26.1442C28.26 26.5114 28.3094 26.895 28.3094 27.2897C28.3094 28.2872 27.9857 29.219 27.4426 29.9699C27.5413 30.1672 27.662 30.3535 27.8047 30.5289C27.8101 30.5399 27.8211 30.5508 27.8266 30.5563C27.8595 30.6002 27.8979 30.644 27.9363 30.6824C27.9802 30.7372 28.0351 30.7865 28.0845 30.8359C28.2216 30.9674 28.3752 31.088 28.5343 31.1921C28.5618 31.214 28.5947 31.2305 28.6276 31.2524C28.6276 31.2579 28.6331 31.2579 28.6331 31.2579C29.1159 31.5539 29.681 31.7238 30.2845 31.7238H30.2955C30.9044 31.7238 31.4695 31.5539 31.9523 31.2634C32.874 30.7043 33.494 29.6903 33.494 28.5284C33.494 26.7635 32.062 25.333 30.2955 25.333ZM30.2955 31.0989H30.2845C29.4341 31.0989 28.655 30.6824 28.1832 29.9918C28.1887 29.9808 28.1942 29.9699 28.1997 29.9589C28.2271 29.9205 28.2491 29.8767 28.271 29.8328C28.3313 29.7342 28.3862 29.6246 28.4356 29.5149C28.463 29.4656 28.485 29.4108 28.5069 29.356C28.5343 29.2957 28.5563 29.2409 28.5782 29.1806C28.6166 29.0874 28.6496 28.9888 28.6825 28.8901C28.6825 28.8792 28.688 28.8682 28.6934 28.8627C28.7154 28.7915 28.7373 28.7147 28.7538 28.6435C28.7593 28.627 28.7648 28.6106 28.7703 28.5941C28.7922 28.5119 28.8087 28.4352 28.8251 28.353C28.8361 28.3037 28.8416 28.2543 28.8526 28.205C28.8526 28.1886 28.858 28.1721 28.858 28.1557C28.8635 28.1173 28.869 28.0789 28.8745 28.046C28.88 27.9912 28.891 27.9309 28.8964 27.8707C28.8964 27.8433 28.9019 27.8158 28.9074 27.7884C28.9074 27.761 28.9129 27.7336 28.9129 27.7062C28.9129 27.6843 28.9184 27.6624 28.9184 27.6405C28.9239 27.5966 28.9239 27.5582 28.9239 27.5144V27.487C28.9239 27.4212 28.9294 27.35 28.9294 27.2787C28.9294 26.9827 28.9019 26.6813 28.8526 26.3853C29.275 26.1003 29.7743 25.9468 30.29 25.9468C31.7109 25.9468 32.8631 27.0978 32.8631 28.5174C32.8631 29.9479 31.7109 31.0989 30.2955 31.0989Z" fill="white"/>
<path d="M28.1777 29.9918C28.1064 30.1124 28.0241 30.2275 27.9473 30.3426C27.8979 30.4083 27.854 30.4686 27.7992 30.5344C27.8047 30.5453 27.8156 30.5563 27.8211 30.5618C27.854 30.6056 27.8925 30.6495 27.9309 30.6879C27.9747 30.7427 28.0296 30.792 28.079 30.8413C28.2161 30.9729 28.3643 31.0934 28.5289 31.1976C28.5563 31.2195 28.5892 31.2359 28.6221 31.2579C28.6221 31.2634 28.6276 31.2634 28.6276 31.2634C29.1598 31.1592 29.7194 31.1044 30.279 31.1044C29.4286 31.0989 28.6551 30.6824 28.1777 29.9918ZM30.2955 24.7081C29.6536 24.7081 29.0336 24.8671 28.4795 25.163C28.293 25.2617 28.1174 25.3768 27.9473 25.5083C27.876 25.5577 27.8102 25.618 27.7443 25.6728L27.459 25.9304L27.5523 26.2976C27.6346 26.621 27.6785 26.9553 27.6785 27.2897C27.6785 28.1282 27.4206 28.9285 26.9323 29.6026C26.9269 29.6136 26.9159 29.6245 26.9104 29.6355C26.9049 29.641 26.9049 29.6465 26.8994 29.652L26.7129 29.915L26.883 30.2549C26.9214 30.3316 26.9653 30.4138 27.0092 30.4851C27.1189 30.6714 27.2451 30.8413 27.3822 31.0003C27.5194 31.1647 27.673 31.3182 27.8376 31.4552C28.0516 31.6361 28.282 31.7895 28.5289 31.9211C29.061 32.1951 29.6645 32.3486 30.29 32.3541H30.3009C30.9319 32.3541 31.5299 32.2006 32.0566 31.9265C32.3035 31.8005 32.5339 31.6415 32.7478 31.4607C33.5873 30.7591 34.1249 29.7068 34.1249 28.5284C34.1194 26.4237 32.4022 24.7081 30.2955 24.7081ZM30.2845 31.0989C29.4341 31.0989 28.655 30.6824 28.1832 29.9918C28.1887 29.9808 28.1942 29.9698 28.1997 29.9589C28.2216 29.9205 28.2491 29.8767 28.271 29.8383C28.3314 29.7342 28.3862 29.63 28.4356 29.5204C28.463 29.4656 28.485 29.4163 28.5069 29.3615C28.5344 29.3012 28.5563 29.2464 28.5782 29.1861C28.6166 29.0929 28.6496 28.9942 28.6825 28.8956C28.6825 28.8846 28.688 28.8791 28.6935 28.8682C28.7154 28.7969 28.7373 28.7202 28.7538 28.6489C28.7593 28.6325 28.7648 28.6161 28.7703 28.5996C28.7922 28.5229 28.8087 28.4407 28.8251 28.3584C28.8361 28.3091 28.8416 28.2598 28.8526 28.2105C28.8526 28.194 28.858 28.1776 28.858 28.1611C28.8635 28.1228 28.869 28.0844 28.8745 28.0515C28.88 27.9967 28.891 27.9364 28.8964 27.8761C28.8964 27.8487 28.9019 27.8213 28.9074 27.7939C28.9074 27.7665 28.9129 27.7391 28.9129 27.7117C28.9129 27.6898 28.9184 27.6678 28.9184 27.6459C28.9239 27.6021 28.9239 27.5637 28.9239 27.5199V27.4925C28.9239 27.4267 28.9294 27.3554 28.9294 27.2842C28.9294 26.9882 28.9019 26.6868 28.8526 26.3908C29.275 26.1058 29.7743 25.9523 30.29 25.9523C31.7109 25.9523 32.8631 27.1033 32.8631 28.5229C32.8631 29.9424 31.7109 31.0934 30.29 31.0934V31.7183L30.2845 31.0989ZM28.1777 29.9918C28.1064 30.1124 28.0241 30.2275 27.9473 30.3426C27.8979 30.4083 27.854 30.4686 27.7992 30.5344C27.8047 30.5453 27.8156 30.5563 27.8211 30.5618C27.854 30.6056 27.8925 30.6495 27.9309 30.6879C27.9747 30.7427 28.0296 30.792 28.079 30.8413C28.2161 30.9729 28.3643 31.0934 28.5289 31.1976C28.5563 31.2195 28.5892 31.2359 28.6221 31.2579C28.6221 31.2634 28.6276 31.2634 28.6276 31.2634C29.1598 31.1592 29.7194 31.1044 30.279 31.1044C29.4286 31.0989 28.6551 30.6824 28.1777 29.9918Z" fill="white"/>
<path d="M35.3319 34.1409C34.8491 33.1105 33.6202 32.2883 32.0511 31.9321C31.5025 31.806 30.91 31.7347 30.2955 31.7347H30.2845C29.67 31.7347 29.0775 31.806 28.5234 31.9321C28.3478 31.9704 28.1723 32.0143 28.0077 32.0691C27.695 32.1623 27.4042 32.2774 27.1244 32.4089C28.9513 33.0008 30.3503 34.0587 30.9538 35.3357C31.1349 35.7194 31.2391 36.125 31.2666 36.5415H35.5678V35.122C35.5569 34.7767 35.4801 34.4478 35.3319 34.1409ZM34.9314 35.9112H31.8042C31.8042 35.9057 31.8042 35.9003 31.7987 35.8948C31.7823 35.829 31.7658 35.7632 31.7494 35.6975C31.7329 35.6372 31.7164 35.5769 31.6945 35.5166C31.6451 35.3631 31.5848 35.2151 31.5189 35.0726C31.497 35.0288 31.4805 34.9849 31.4531 34.9411C31.4476 34.9356 31.4421 34.9247 31.4366 34.9137C31.4202 34.8753 31.4037 34.8424 31.3818 34.8096C31.3598 34.7657 31.3324 34.7219 31.305 34.678C31.305 34.6725 31.2995 34.667 31.294 34.6616C31.2611 34.6122 31.2336 34.5629 31.2007 34.5136C31.1623 34.4588 31.1294 34.404 31.0855 34.3492C31.0416 34.2834 30.9922 34.2176 30.9374 34.1573C30.899 34.108 30.8606 34.0641 30.8222 34.0148C30.6137 33.7737 30.3778 33.538 30.1144 33.3187C30.0596 33.2749 29.9992 33.2256 29.9444 33.1817C29.8785 33.1269 29.8127 33.0776 29.7469 33.0282C29.6865 32.9844 29.6207 32.9405 29.5603 32.8967C29.5439 32.8857 29.5329 32.8748 29.5164 32.8693C29.4177 32.8035 29.3189 32.7378 29.2147 32.6775C29.1434 32.6281 29.0665 32.5843 28.9897 32.5459C28.9568 32.5295 28.9239 32.5076 28.891 32.4911C29.3354 32.4034 29.8017 32.3596 30.279 32.3596H30.29C32.3638 32.365 34.2017 33.2036 34.7613 34.4094C34.8711 34.6396 34.9259 34.8808 34.9259 35.122V35.9112H34.9314Z" fill="white"/>
<path d="M35.9025 33.8723C35.3922 32.7761 34.2291 31.9156 32.7424 31.4607C32.49 31.3839 32.2212 31.3182 31.9523 31.2634C31.4256 31.1592 30.866 31.1044 30.2955 31.0989H30.2845C29.7194 31.0989 29.1598 31.1537 28.6331 31.2579C28.3588 31.3072 28.0954 31.373 27.8321 31.4552C27.5742 31.5319 27.3219 31.6251 27.0805 31.7292C27.0037 31.7621 26.9269 31.8005 26.85 31.8334L26.1972 32.1458L25.4401 32.5075L26.9323 32.9899C28.6057 33.5325 29.862 34.4807 30.3832 35.5878C30.5259 35.8893 30.6082 36.2017 30.6356 36.5086C30.6411 36.5251 30.6411 36.547 30.6411 36.5634L30.674 37.1554H36.1932V35.111C36.1823 34.689 36.089 34.2724 35.9025 33.8723ZM31.0855 34.3437C31.0416 34.2779 30.9922 34.2121 30.9374 34.1518C30.899 34.1025 30.8605 34.0587 30.8221 34.0093C30.6137 33.7682 30.3778 33.5325 30.1144 33.3132C30.0595 33.2694 29.9992 33.2201 29.9443 33.1762C29.8785 33.1269 29.8127 33.0721 29.7468 33.0282C29.6865 32.9844 29.6206 32.9405 29.5603 32.8967C29.5438 32.8857 29.5329 32.8748 29.5164 32.8693C29.4176 32.8035 29.3189 32.7377 29.2147 32.6775C29.1433 32.6281 29.0665 32.5843 28.9897 32.5459C28.9568 32.5295 28.9239 32.513 28.8964 32.4911C29.3408 32.4034 29.8072 32.3596 30.2845 32.3596H30.2955C32.3693 32.365 34.2072 33.2036 34.7668 34.4094C34.8765 34.6396 34.9314 34.8808 34.9314 35.122V35.9167H31.8042C31.8042 35.9112 31.8042 35.9057 31.7987 35.9002C31.7822 35.8345 31.7658 35.7742 31.7493 35.7029C31.7329 35.6426 31.7164 35.5824 31.6945 35.5166C31.6451 35.3631 31.5847 35.2151 31.5189 35.0726C31.497 35.0288 31.475 34.9849 31.4531 34.9411C31.4476 34.9356 31.4421 34.9246 31.4366 34.9137C31.4202 34.8753 31.4037 34.8424 31.3817 34.8095C31.3598 34.7657 31.3324 34.7218 31.3049 34.678C31.3049 34.6725 31.2995 34.667 31.294 34.6616C31.261 34.6122 31.2336 34.5629 31.1952 34.5136C31.1623 34.4533 31.1239 34.3985 31.0855 34.3437Z" fill="white"/>
<path d="M19.1253 27.2951C19.1253 26.9005 19.1747 26.5168 19.2679 26.1496C19.1034 26.0016 18.9223 25.8701 18.7248 25.7605C18.2585 25.4919 17.7153 25.3384 17.1338 25.3384C15.3672 25.3384 13.9352 26.769 13.9352 28.5338C13.9352 29.6903 14.5442 30.7043 15.4659 31.2634C15.9487 31.5593 16.5138 31.7292 17.1173 31.7292H17.1283C17.7373 31.7292 18.3078 31.5593 18.7906 31.2634C19.1088 31.066 19.3886 30.8249 19.6246 30.5344C19.7672 30.359 19.8879 30.1781 19.9867 29.9753C19.449 29.219 19.1253 28.2927 19.1253 27.2951ZM17.1393 31.0989H17.1283C15.7128 31.0934 14.5662 29.9424 14.5662 28.5284C14.5662 27.1088 15.7183 25.9578 17.1393 25.9578C17.655 25.9578 18.1542 26.1113 18.5767 26.3963C18.5657 26.4675 18.5547 26.5388 18.5437 26.6155C18.5163 26.8402 18.4999 27.0649 18.4999 27.2897C18.4999 27.3554 18.4999 27.4267 18.5053 27.4979C18.5053 27.5747 18.5108 27.6404 18.5218 27.7172C18.5218 27.772 18.5328 27.8268 18.5383 27.8761C18.5437 27.9364 18.5492 27.9912 18.5602 28.0515C18.5657 28.0899 18.5712 28.1282 18.5822 28.1611C18.5822 28.1776 18.5822 28.194 18.5876 28.2105C18.5986 28.2598 18.6096 28.3091 18.6151 28.3584C18.6809 28.6763 18.7797 28.9888 18.9058 29.2902C18.9278 29.3505 18.9552 29.4053 18.9827 29.4656C19.0101 29.5259 19.043 29.5862 19.0704 29.6465C19.1308 29.7671 19.1966 29.8821 19.2625 29.9973C18.7797 30.6824 17.9951 31.0989 17.1393 31.0989Z" fill="white"/>
<path d="M20.5024 29.6081C20.0141 28.934 19.7562 28.1337 19.7562 27.2952C19.7562 27.1307 19.7672 26.9608 19.7892 26.7964C19.7946 26.7525 19.8001 26.7142 19.8056 26.6703C19.8111 26.632 19.8166 26.5936 19.8276 26.5552C19.8276 26.5497 19.8276 26.5497 19.8276 26.5497C19.833 26.5169 19.8385 26.4895 19.844 26.4566C19.8495 26.4401 19.8495 26.4237 19.855 26.4072C19.855 26.4072 19.855 26.4018 19.855 26.3963C19.8605 26.3634 19.866 26.336 19.8769 26.3031L19.8934 26.2483L19.9757 25.9359L19.6904 25.6783C19.6246 25.618 19.5587 25.5632 19.4874 25.5138C19.3173 25.3823 19.1418 25.2672 18.9552 25.1685C18.4011 24.8726 17.7812 24.7136 17.1393 24.7136C15.027 24.7136 13.3098 26.4292 13.3098 28.5393C13.3098 29.7068 13.842 30.7646 14.6759 31.4662C14.8844 31.647 15.1203 31.8005 15.3672 31.9266C15.8939 32.2006 16.4864 32.3596 17.1228 32.3596H17.1338C17.7647 32.3596 18.3682 32.2116 18.9004 31.932C19.1473 31.806 19.3777 31.647 19.5917 31.4662C19.7562 31.3291 19.9153 31.1757 20.0525 31.0058C20.1897 30.8468 20.3158 30.6714 20.4201 30.4905C20.464 30.4138 20.5079 30.3371 20.5463 30.2603L20.7163 29.9205L20.5024 29.6081ZM17.1283 31.0989C15.7128 31.0935 14.5662 29.9425 14.5662 28.5284C14.5662 27.1088 15.7183 25.9578 17.1393 25.9578C17.655 25.9578 18.1542 26.1113 18.5767 26.3963C18.5657 26.4675 18.5492 26.5388 18.5438 26.6155C18.5163 26.8402 18.4999 27.065 18.4999 27.2897C18.4999 27.3554 18.4999 27.4267 18.5054 27.4979C18.5054 27.5747 18.5108 27.6405 18.5218 27.7172C18.5218 27.772 18.5328 27.8268 18.5383 27.8761C18.5438 27.9364 18.5493 27.9912 18.5602 28.0515C18.5657 28.0899 18.5712 28.1283 18.5822 28.1611C18.5822 28.1776 18.5877 28.194 18.5877 28.2105C18.5986 28.2598 18.6096 28.3091 18.6151 28.3585C18.6809 28.6764 18.7797 28.9888 18.9059 29.2902C18.9278 29.3505 18.9552 29.4053 18.9827 29.4656C19.0101 29.5259 19.0375 29.5862 19.0704 29.6465C19.1308 29.7671 19.1966 29.8822 19.268 29.9973C18.7906 30.6879 18.0116 31.1044 17.1502 31.1044V31.7292L17.1283 31.0989Z" fill="white"/>
<path d="M19.3996 32.0581C19.2405 32.0088 19.0759 31.9649 18.9058 31.9266C18.3517 31.8005 17.7592 31.7292 17.1393 31.7292H17.1283C16.5138 31.7292 15.9268 31.795 15.3781 31.9211C13.7981 32.2773 12.5637 33.105 12.0754 34.1409C11.9821 34.3491 11.9108 34.5629 11.8779 34.7876V36.5415H16.1682V36.262C16.2175 35.9441 16.3163 35.6317 16.4535 35.3357C17.057 34.0532 18.456 32.9953 20.2884 32.4034C20.0086 32.2664 19.7123 32.1513 19.3996 32.0581ZM18.5053 32.4856C18.4285 32.524 18.3517 32.5678 18.2804 32.6117C18.253 32.6281 18.2255 32.6446 18.1981 32.661C18.0774 32.7323 17.9622 32.8035 17.8525 32.8802C17.7976 32.9186 17.7373 32.957 17.6879 32.9953C17.5233 33.1104 17.3697 33.231 17.227 33.3571C17.1173 33.4503 17.0186 33.5434 16.9198 33.6421C16.8649 33.6914 16.8156 33.7517 16.7607 33.801L16.7552 33.8065C16.7058 33.8559 16.6619 33.9107 16.6126 33.9655C16.6016 33.9764 16.5961 33.9819 16.5906 33.9929C16.5467 34.0422 16.5028 34.097 16.4589 34.1463C16.4205 34.1957 16.3821 34.2395 16.3492 34.2889C16.1682 34.5355 16.0091 34.7986 15.8829 35.0617C15.85 35.1329 15.817 35.2097 15.7841 35.2809C15.7677 35.3302 15.7457 35.3796 15.7293 35.4289C15.7183 35.4618 15.7018 35.5001 15.6909 35.533C15.6799 35.5769 15.6634 35.6152 15.6525 35.6591C15.6305 35.7303 15.6141 35.8071 15.5976 35.8783C15.5921 35.8893 15.5921 35.9003 15.5866 35.9057H12.4923V34.826C12.5198 34.689 12.5637 34.541 12.635 34.3985C13.2001 33.1981 15.038 32.3541 17.1173 32.3486H17.1283C17.6111 32.3541 18.0719 32.3979 18.5053 32.4856C18.5108 32.4801 18.5053 32.4801 18.5053 32.4856Z" fill="white"/>
<path d="M21.2101 32.1458L20.5518 31.8334C20.4749 31.8005 20.3981 31.7621 20.3213 31.7347C20.0854 31.6306 19.844 31.5429 19.5917 31.4662C19.3338 31.3894 19.0705 31.3182 18.7961 31.2688C18.264 31.1647 17.7098 31.1099 17.1338 31.1099H17.1228C16.5522 31.1099 15.9981 31.1647 15.4714 31.2688C15.1971 31.3237 14.9393 31.3839 14.6814 31.4662C13.1946 31.9211 12.0205 32.7816 11.5048 33.8833C11.3841 34.1518 11.2963 34.4259 11.2579 34.6944L11.2524 36.5251V37.1718H16.7991V36.3168C16.843 36.0756 16.9198 35.8345 17.0241 35.6043C17.5453 34.4916 18.8071 33.5434 20.4859 33.0008L21.9782 32.5185L21.2101 32.1458ZM16.9198 33.6421C16.8649 33.6969 16.8156 33.7517 16.7607 33.801L16.7552 33.8065C16.7058 33.8559 16.6565 33.9107 16.6126 33.9655C16.6016 33.971 16.5961 33.9819 16.5906 33.9929C16.5467 34.0422 16.5029 34.097 16.459 34.1518C16.4206 34.1957 16.3822 34.245 16.3492 34.2943C16.1682 34.541 16.0091 34.7986 15.8829 35.0671C15.85 35.1384 15.8171 35.2151 15.7841 35.2919C15.7677 35.3412 15.7457 35.3905 15.7293 35.4399C15.7183 35.4727 15.7018 35.5111 15.6909 35.544C15.6799 35.5878 15.6634 35.6262 15.6525 35.6701C15.6305 35.7413 15.6141 35.818 15.5976 35.8893C15.5921 35.9003 15.5921 35.9112 15.5866 35.9167H12.4978V34.8369C12.5253 34.6999 12.5692 34.5519 12.6405 34.4094C13.2056 33.2036 15.0435 32.365 17.1283 32.3596H17.1393C17.6111 32.3596 18.0665 32.4034 18.5054 32.4856C18.5054 32.4856 18.5054 32.4856 18.5054 32.4911C18.4286 32.5295 18.3517 32.5733 18.2804 32.6172C18.253 32.6336 18.2256 32.65 18.1981 32.6665C18.0774 32.7377 17.9622 32.809 17.8525 32.8857C17.7976 32.9241 17.7373 32.9625 17.6879 33.0008C17.5233 33.1159 17.3697 33.2365 17.227 33.3626C17.1173 33.4503 17.0186 33.5489 16.9198 33.6421Z" fill="white"/>
<path d="M23.7009 31.2469L23.7174 31.8772V31.2469H23.7009ZM28.1613 26.1496C28.1064 25.9304 28.0351 25.7166 27.9473 25.5138C27.5578 24.604 26.8885 23.8422 26.0381 23.3434C25.3578 22.9433 24.5623 22.7131 23.7174 22.7131C23.2401 22.7131 22.7792 22.7843 22.3513 22.9214C21.0565 23.3269 20.0086 24.2806 19.4874 25.5193C19.3996 25.7221 19.3283 25.9359 19.2734 26.1551C19.1802 26.5223 19.1308 26.906 19.1308 27.3006C19.1308 28.2982 19.4545 29.2299 19.9976 29.9808C20.1293 30.1617 20.272 30.3316 20.4311 30.4905C20.7932 30.8687 21.2266 31.1811 21.7039 31.4168C21.7094 31.4168 21.7094 31.4168 21.7094 31.4168C21.7862 31.4552 21.8685 31.4936 21.9508 31.5264C22.0221 31.5539 22.0879 31.5813 22.1592 31.6087C22.258 31.6415 22.3622 31.6799 22.4665 31.7073C22.5323 31.7238 22.5982 31.7457 22.664 31.7566C22.7463 31.7786 22.8341 31.795 22.9164 31.806C22.9657 31.8169 23.0151 31.8224 23.0645 31.8279C23.1139 31.8334 23.1632 31.8389 23.2126 31.8443C23.2346 31.8498 23.2565 31.8498 23.2785 31.8553C23.3004 31.8553 23.3223 31.8608 23.3388 31.8608C23.3498 31.8608 23.3608 31.8608 23.3717 31.8608C23.4046 31.8663 23.443 31.8663 23.476 31.8717H23.5034C23.5692 31.8772 23.6351 31.8772 23.7009 31.8772H23.7229C24.4416 31.8772 25.1164 31.7128 25.7254 31.4168C26.2082 31.1811 26.6416 30.8687 27.0037 30.4851C27.1628 30.3261 27.3054 30.1507 27.4371 29.9699C27.9802 29.2135 28.3039 28.2872 28.3039 27.2897C28.3039 26.9005 28.2546 26.5169 28.1613 26.1496ZM26.9323 29.6081C26.9214 29.6191 26.9159 29.63 26.9104 29.641C26.9049 29.6465 26.9049 29.652 26.8994 29.652C26.1533 30.655 24.9737 31.2469 23.7229 31.2469H23.7009C22.4391 31.2414 21.243 30.6276 20.5079 29.6026C20.0196 28.9285 19.7617 28.1283 19.7617 27.2897C19.7617 27.1252 19.7727 26.9553 19.7946 26.7909C19.8001 26.7471 19.8056 26.7087 19.8111 26.6703C19.8166 26.632 19.8221 26.5936 19.833 26.5552C19.833 26.5497 19.833 26.5497 19.833 26.5497C19.844 26.5004 19.8495 26.4511 19.866 26.4072V26.4018C19.8715 26.3689 19.8769 26.3415 19.8879 26.3086L19.9044 26.2538C19.9318 26.1606 19.9592 26.0674 19.9922 25.9797C20.0031 25.9414 20.0196 25.9085 20.0306 25.8701C20.0415 25.8427 20.0525 25.8153 20.0635 25.7879C20.0799 25.744 20.1019 25.7002 20.1183 25.6563C20.1293 25.6289 20.1458 25.6015 20.1567 25.5687C20.1732 25.5303 20.1951 25.4919 20.2171 25.4536C20.239 25.4097 20.261 25.3713 20.2829 25.3275C20.3542 25.2014 20.4311 25.0863 20.5134 24.9712C20.5298 24.9438 20.5572 24.9109 20.5737 24.8835C20.7767 24.615 21.0181 24.3793 21.2869 24.171C21.3253 24.1436 21.3582 24.1162 21.3966 24.0888C21.4351 24.0614 21.4735 24.034 21.5119 24.0066C21.6216 23.9353 21.7313 23.8641 21.8465 23.8038C21.8904 23.7819 21.9398 23.7545 21.9892 23.7325C22.1812 23.6394 22.3787 23.5626 22.5872 23.5023C22.642 23.4859 22.6914 23.4749 22.7408 23.4585C22.845 23.4311 22.9548 23.4092 23.059 23.3927H23.0645C23.1578 23.3763 23.2565 23.3653 23.3498 23.3543C23.4705 23.3434 23.5912 23.3379 23.7119 23.3379C23.8984 23.3379 24.0795 23.3489 24.2605 23.3763C24.3538 23.3872 24.4416 23.4037 24.5348 23.4256C24.5513 23.4256 24.5623 23.4311 24.5787 23.4366C24.672 23.4585 24.7598 23.4804 24.8475 23.5023C24.9024 23.5188 24.9573 23.5407 25.0121 23.5571C25.1109 23.59 25.2096 23.6284 25.3029 23.6722C25.5937 23.8038 25.8735 23.9627 26.1259 24.16C26.2575 24.2587 26.3782 24.3628 26.4934 24.4779C26.5154 24.4999 26.5373 24.5218 26.5593 24.5437C26.9543 24.9438 27.2615 25.4316 27.4535 25.9797C27.47 26.0345 27.492 26.0839 27.5084 26.1387C27.5249 26.1935 27.5413 26.2483 27.5523 26.3031C27.6346 26.6265 27.6785 26.9608 27.6785 27.2952C27.6785 28.1283 27.4206 28.9285 26.9323 29.6081Z" fill="white"/>
<path d="M23.7009 31.2469C22.4391 31.2414 21.243 30.6276 20.5024 29.6026L20.7273 29.9151L20.5573 30.2549C20.5189 30.3316 20.475 30.4083 20.4311 30.4851C20.3213 30.6659 20.2006 30.8413 20.058 31.0003C20.2829 31.225 20.5298 31.4223 20.7932 31.5977C20.87 31.5813 20.9413 31.5593 21.0181 31.5429C21.1004 31.5265 21.1772 31.5045 21.2595 31.4881C21.3199 31.4771 21.3747 31.4662 21.4351 31.4552C21.5228 31.4388 21.6106 31.4223 21.7039 31.4059C21.7039 31.4059 21.7039 31.4059 21.7094 31.4059C21.7862 31.4442 21.8685 31.4826 21.9563 31.5155C22.0221 31.5429 22.0934 31.5703 22.1647 31.5977C22.2635 31.6306 22.3623 31.669 22.472 31.6964C22.5378 31.7128 22.6036 31.7347 22.6695 31.7457C22.7518 31.7676 22.8341 31.7841 22.9219 31.795C22.9712 31.806 23.0151 31.8115 23.07 31.8169C23.1194 31.8279 23.1687 31.8279 23.2181 31.8334C23.2401 31.8389 23.262 31.8389 23.284 31.8444C23.3059 31.8444 23.3224 31.8498 23.3443 31.8498C23.3553 31.8498 23.3662 31.8498 23.3772 31.8498C23.4101 31.8553 23.4485 31.8553 23.4815 31.8608H23.5089C23.5747 31.8663 23.6406 31.8663 23.7064 31.8663H23.7283L23.7009 31.2469ZM23.7009 31.2469C22.4391 31.2414 21.243 30.6276 20.5024 29.6026L20.7273 29.9151L20.5573 30.2549C20.5189 30.3316 20.475 30.4083 20.4311 30.4851C20.3213 30.6659 20.2006 30.8413 20.058 31.0003C20.2829 31.225 20.5298 31.4223 20.7932 31.5977C20.87 31.5813 20.9413 31.5593 21.0181 31.5429C21.1004 31.5265 21.1772 31.5045 21.2595 31.4881C21.3199 31.4771 21.3747 31.4662 21.4351 31.4552C21.5228 31.4388 21.6106 31.4223 21.7039 31.4059C21.7039 31.4059 21.7039 31.4059 21.7094 31.4059C21.7862 31.4442 21.8685 31.4826 21.9563 31.5155C22.0221 31.5429 22.0934 31.5703 22.1647 31.5977C22.2635 31.6306 22.3623 31.669 22.472 31.6964C22.5378 31.7128 22.6036 31.7347 22.6695 31.7457C22.7518 31.7676 22.8341 31.7841 22.9219 31.795C22.9712 31.806 23.0151 31.8115 23.07 31.8169C23.1194 31.8279 23.1687 31.8279 23.2181 31.8334C23.2401 31.8389 23.262 31.8389 23.284 31.8444C23.3059 31.8444 23.3224 31.8498 23.3443 31.8498C23.3553 31.8498 23.3662 31.8498 23.3772 31.8498C23.4101 31.8553 23.4485 31.8553 23.4815 31.8608H23.5089C23.5747 31.8663 23.6406 31.8663 23.7064 31.8663H23.7283L23.7009 31.2469ZM28.8526 26.4018C28.8306 26.2647 28.7977 26.1277 28.7648 25.9907C28.7428 25.914 28.7209 25.8372 28.6989 25.7605C28.6386 25.5577 28.5618 25.3604 28.4795 25.1686C27.7224 23.4804 26.1149 22.3075 24.255 22.1157C24.0795 22.0992 23.8984 22.0883 23.7229 22.0883C23.0096 22.0883 22.3293 22.2308 21.7039 22.4938C20.4969 22.9981 19.5094 23.9518 18.9607 25.1686C18.873 25.3604 18.8016 25.5577 18.7358 25.766C18.7084 25.8427 18.6919 25.9194 18.67 25.9962C18.637 26.1277 18.6041 26.2647 18.5822 26.4018C18.5712 26.473 18.5602 26.5498 18.5493 26.621C18.5218 26.8457 18.5054 27.0704 18.5054 27.2952C18.5054 27.3609 18.5054 27.4322 18.5109 27.5034C18.5109 27.5802 18.5163 27.6459 18.5273 27.7227C18.5273 27.7775 18.5383 27.8268 18.5438 27.8816C18.5493 27.9419 18.5547 27.9967 18.5657 28.057C18.5712 28.0954 18.5767 28.1337 18.5877 28.1666C18.5877 28.1831 18.5877 28.1995 18.5932 28.216C18.6041 28.2653 18.6151 28.3146 18.6206 28.3639C18.6864 28.6818 18.7852 28.9943 18.9114 29.2957C18.9333 29.356 18.9607 29.4108 18.9882 29.4711C19.0156 29.5314 19.0485 29.5917 19.0759 29.652C19.1363 29.7726 19.2021 29.8877 19.268 30.0028C19.3393 30.1233 19.4161 30.2384 19.4984 30.3535C19.5478 30.4193 19.5971 30.4851 19.6465 30.5454C19.7782 30.7098 19.9208 30.8687 20.069 31.0167C20.2939 31.2414 20.5408 31.4388 20.8041 31.6142C21.0675 31.795 21.3473 31.9485 21.6381 32.0746C22.28 32.3596 22.9877 32.513 23.7119 32.513H23.7338C24.458 32.513 25.1603 32.3596 25.8131 32.08C26.1039 31.954 26.3837 31.8005 26.6471 31.6251C26.9104 31.4442 27.1573 31.2414 27.3877 31.0167C27.5413 30.8687 27.684 30.7153 27.8102 30.5454C27.865 30.4851 27.9089 30.4193 27.9583 30.3535C28.0406 30.2384 28.1174 30.1233 28.1887 30.0028C28.1942 29.9918 28.1997 29.9808 28.2052 29.9699C28.2271 29.9315 28.2546 29.8877 28.2765 29.8493C28.3369 29.7451 28.3917 29.641 28.4411 29.5314C28.4685 29.4766 28.4905 29.4273 28.5124 29.3724C28.5398 29.3122 28.5618 29.2573 28.5837 29.1971C28.6221 29.0984 28.6551 29.0052 28.688 28.9066C28.688 28.8956 28.6935 28.8901 28.6989 28.8792C28.7209 28.8079 28.7428 28.7312 28.7648 28.6599C28.7703 28.6435 28.7758 28.627 28.7812 28.6106C28.8032 28.5339 28.8196 28.4516 28.8361 28.3694C28.8471 28.3201 28.8526 28.2708 28.8635 28.2214C28.8635 28.205 28.869 28.1886 28.869 28.1721C28.8745 28.1337 28.88 28.0954 28.891 28.0625C28.8965 28.0077 28.9074 27.9474 28.9129 27.8871C28.9129 27.8597 28.9184 27.8323 28.9239 27.8049C28.9239 27.7775 28.9294 27.7501 28.9294 27.7227C28.9294 27.7008 28.9349 27.6788 28.9349 27.6569C28.9403 27.6131 28.9403 27.5747 28.9458 27.5308V27.5034C28.9458 27.4377 28.9513 27.3664 28.9513 27.2952C28.9349 26.9937 28.9074 26.6923 28.8526 26.4018ZM23.7009 31.2469C22.4391 31.2414 21.243 30.6276 20.5024 29.6026C20.0141 28.9285 19.7563 28.1283 19.7563 27.2897C19.7563 27.1253 19.7672 26.9553 19.7892 26.7909C19.7947 26.7471 19.8001 26.7087 19.8056 26.6649C19.8111 26.6265 19.8166 26.5881 19.8276 26.5498C19.8276 26.5443 19.8276 26.5443 19.8276 26.5443C19.8385 26.4949 19.844 26.4456 19.8605 26.4018C19.8605 26.4018 19.8605 26.3963 19.8605 26.3908C19.866 26.3579 19.8715 26.3305 19.877 26.2976C19.8824 26.2757 19.8879 26.2593 19.8934 26.2373C19.9208 26.1442 19.9483 26.051 19.9812 25.9633C19.9922 25.9249 20.0086 25.8866 20.0196 25.8537C20.0306 25.8263 20.0415 25.7989 20.0525 25.7715C20.0745 25.7276 20.0909 25.6838 20.1074 25.6399C20.1183 25.6125 20.1348 25.5851 20.1458 25.5522C20.1622 25.5139 20.1842 25.47 20.2061 25.4371C20.2281 25.3933 20.25 25.3549 20.2775 25.3111C20.3433 25.185 20.4256 25.0699 20.5079 24.9548C20.5298 24.9274 20.5463 24.9 20.5682 24.8671C20.7712 24.5985 21.0126 24.3629 21.2814 24.1546C21.3199 24.1272 21.3528 24.0998 21.3912 24.0724C21.4296 24.045 21.468 24.0176 21.5064 23.9901C21.6161 23.9189 21.7258 23.8476 21.8411 23.7874C21.8904 23.7654 21.9343 23.738 21.9837 23.7161C22.1757 23.6229 22.3732 23.5462 22.5817 23.4859C22.6366 23.4695 22.6859 23.453 22.7353 23.4421C22.8396 23.4146 22.9493 23.3927 23.0535 23.3763H23.059C23.1523 23.3598 23.251 23.3489 23.3443 23.3379C23.465 23.327 23.5857 23.3215 23.7064 23.3215C23.8929 23.3215 24.074 23.3324 24.255 23.3598C24.3483 23.3708 24.4361 23.3872 24.5293 23.4092C24.5458 23.4146 24.5568 23.4146 24.5732 23.4201C24.6665 23.4366 24.7543 23.464 24.8421 23.4859C24.8969 23.5023 24.9518 23.5243 25.0067 23.5407C25.1054 23.5736 25.2042 23.612 25.2974 23.6558C25.5882 23.7874 25.868 23.9463 26.1204 24.1436C26.2521 24.2423 26.3727 24.3464 26.488 24.4615C26.5099 24.4834 26.5319 24.5054 26.5538 24.5273C26.9488 24.9274 27.256 25.4152 27.4481 25.9633C27.4645 26.0181 27.4865 26.0674 27.5029 26.1222C27.5194 26.177 27.5358 26.2319 27.5468 26.2867C27.6291 26.61 27.673 26.9444 27.673 27.2787C27.673 28.1173 27.4151 28.9175 26.9214 29.5972C26.9159 29.6081 26.9049 29.6191 26.8994 29.63C26.8939 29.6355 26.8939 29.641 26.8885 29.6465C26.1423 30.6495 24.9628 31.2414 23.7119 31.2414V31.8718L23.7009 31.2469ZM23.7009 31.2469C22.4391 31.2414 21.243 30.6276 20.5024 29.6026L20.7273 29.9151L20.5573 30.2549C20.5189 30.3316 20.475 30.4083 20.4311 30.4851C20.3213 30.6659 20.2006 30.8413 20.058 31.0003C20.2829 31.225 20.5298 31.4223 20.7932 31.5977C20.87 31.5813 20.9413 31.5593 21.0181 31.5429C21.1004 31.5265 21.1772 31.5045 21.2595 31.4881C21.3199 31.4771 21.3747 31.4662 21.4351 31.4552C21.5228 31.4388 21.6106 31.4223 21.7039 31.4059C21.7039 31.4059 21.7039 31.4059 21.7094 31.4059C21.7862 31.4442 21.8685 31.4826 21.9563 31.5155C22.0221 31.5429 22.0934 31.5703 22.1647 31.5977C22.2635 31.6306 22.3623 31.669 22.472 31.6964C22.5378 31.7128 22.6036 31.7347 22.6695 31.7457C22.7518 31.7676 22.8341 31.7841 22.9219 31.795C22.9712 31.806 23.0151 31.8115 23.07 31.8169C23.1194 31.8279 23.1687 31.8279 23.2181 31.8334C23.2401 31.8389 23.262 31.8389 23.284 31.8444C23.3059 31.8444 23.3224 31.8498 23.3443 31.8498C23.3553 31.8498 23.3662 31.8498 23.3772 31.8498C23.4101 31.8553 23.4485 31.8553 23.4815 31.8608H23.5089C23.5747 31.8663 23.6406 31.8663 23.7064 31.8663H23.7283L23.7009 31.2469Z" fill="white"/>
<path d="M31.2611 36.5415C31.2611 36.536 31.2611 36.5305 31.2611 36.5196C31.2336 36.1085 31.1294 35.7084 30.9484 35.3302C30.3503 34.0532 28.9459 32.9953 27.1189 32.3979C26.8172 32.2992 26.5099 32.217 26.1917 32.1458C26.06 32.1129 25.9284 32.0855 25.7967 32.0636C25.1383 31.9375 24.4361 31.8717 23.7174 31.8717H23.6954C22.9767 31.8717 22.28 31.9375 21.6271 32.0581C21.4845 32.08 21.3473 32.1129 21.2156 32.1403C20.8974 32.2116 20.5902 32.2992 20.2884 32.3924C18.4615 32.9844 17.057 34.0422 16.4535 35.3247C16.3109 35.6207 16.2176 35.9331 16.1682 36.251V38.7668H31.2666V36.7279C31.2666 36.6731 31.2666 36.6073 31.2611 36.5415ZM30.6411 38.1474H16.7937V36.3113C16.8375 36.0701 16.9144 35.829 17.0186 35.5988C17.5398 34.4861 18.8016 33.5379 20.4805 32.9953C21.4735 32.6665 22.5488 32.502 23.7009 32.502H23.7229C24.8366 32.5075 25.9393 32.6774 26.9269 32.9953C28.6002 33.5379 29.8566 34.4862 30.3778 35.5933C30.5204 35.8948 30.6027 36.2072 30.6302 36.5141C30.6356 36.536 30.6356 36.5525 30.6356 36.5689V36.5908C30.6411 36.6402 30.6411 36.684 30.6411 36.7333V38.1474Z" fill="white"/>
<path d="M31.8865 36.5415C31.8865 36.536 31.8865 36.5305 31.8865 36.5251C31.8865 36.5141 31.8865 36.5086 31.8865 36.4977C31.8755 36.3058 31.8481 36.1085 31.8042 35.9222C31.8042 35.9167 31.8042 35.9112 31.7987 35.9057C31.7822 35.84 31.7658 35.7797 31.7493 35.7084C31.7329 35.6481 31.7164 35.5878 31.6945 35.5221C31.6451 35.3686 31.5847 35.2206 31.5189 35.0781C31.4969 35.0343 31.475 34.9904 31.4531 34.9466C31.4476 34.9411 31.4421 34.9301 31.4366 34.9191C31.4201 34.8808 31.3982 34.8479 31.3817 34.815C31.3598 34.7712 31.3324 34.7273 31.3049 34.6835C31.2994 34.678 31.2994 34.6725 31.294 34.667C31.261 34.6177 31.2281 34.5684 31.1952 34.519C31.1568 34.4642 31.1239 34.4094 31.08 34.3546C31.0361 34.2888 30.9867 34.2231 30.9319 34.1628C30.8935 34.1135 30.855 34.0696 30.8166 34.0203C30.6082 33.7791 30.3723 33.5434 30.1089 33.3242C30.054 33.2803 29.9937 33.231 29.9388 33.1872C29.873 33.1378 29.8072 33.083 29.7413 33.0337C29.681 32.9899 29.6151 32.946 29.5548 32.9022C29.5383 32.8912 29.5274 32.8802 29.5109 32.8748C29.4121 32.809 29.3134 32.7432 29.2092 32.6829C29.1378 32.6336 29.061 32.5897 28.9842 32.5514C28.9513 32.5349 28.9184 32.5185 28.8855 32.4966C28.6057 32.3376 28.3039 32.2006 27.9967 32.0691C27.7772 31.9759 27.5468 31.8937 27.3109 31.8169C27.2341 31.7895 27.1518 31.7676 27.075 31.7402C26.9323 31.6964 26.7842 31.658 26.6361 31.6196C26.3398 31.5429 26.0326 31.4771 25.7253 31.4278C25.0779 31.3182 24.4141 31.2634 23.7228 31.2579H23.7009C23.0151 31.2579 22.3512 31.3127 21.7039 31.4223C21.6161 31.4387 21.5228 31.4552 21.435 31.4716C21.3802 31.4826 21.3198 31.4936 21.2595 31.5045C21.1772 31.521 21.0949 31.5429 21.0181 31.5593C20.9413 31.5758 20.8645 31.5922 20.7931 31.6141C20.634 31.6525 20.4804 31.6963 20.3268 31.7457C20.25 31.7676 20.1677 31.795 20.0909 31.8169C19.855 31.8937 19.6245 31.9759 19.3996 32.0691C19.0869 32.1951 18.7906 32.3376 18.5108 32.4911C18.5108 32.4911 18.5108 32.4911 18.5108 32.4966C18.434 32.5349 18.3572 32.5788 18.2859 32.6226C18.2585 32.6391 18.231 32.6555 18.2036 32.672C18.0829 32.7432 17.9732 32.8145 17.858 32.8912C17.8031 32.9296 17.7427 32.9679 17.6879 33.0063C17.5233 33.1214 17.3697 33.242 17.227 33.368C17.1228 33.4612 17.0185 33.5544 16.9198 33.6531C16.8649 33.7079 16.8156 33.7627 16.7607 33.812L16.7552 33.8175C16.7058 33.8668 16.6564 33.9216 16.6126 33.9764C16.6016 33.9819 16.5961 33.9929 16.5906 34.0038C16.5467 34.0532 16.5028 34.108 16.4589 34.1628C16.4205 34.2121 16.3821 34.256 16.3492 34.3053C16.1682 34.5519 16.0091 34.815 15.8829 35.0781C15.85 35.1493 15.817 35.2261 15.7896 35.3028C15.7732 35.3521 15.7512 35.4015 15.7347 35.4508C15.7238 35.4837 15.7073 35.5221 15.6963 35.5549C15.6799 35.5988 15.6689 35.6372 15.6579 35.681C15.636 35.7523 15.6195 35.829 15.6031 35.9002C15.5811 35.9934 15.5647 36.0866 15.5482 36.1798V36.558V37.1828L15.5427 39.419H31.8974V36.7553C31.892 36.6731 31.892 36.6073 31.8865 36.5415ZM16.7936 36.3113C16.832 36.0701 16.9143 35.829 17.0185 35.5988C17.5397 34.4862 18.8016 33.538 20.4804 32.9953C21.4734 32.6665 22.5488 32.502 23.7009 32.502H23.7228C24.8366 32.5075 25.9393 32.6774 26.9268 32.9953C28.6002 33.538 29.8565 34.4862 30.3777 35.5933C30.5204 35.8948 30.6027 36.2072 30.6301 36.5141C30.6356 36.5306 30.6356 36.5525 30.6356 36.5689V36.5908C30.6411 36.6402 30.6411 36.684 30.6411 36.7333V38.1419H16.7936V36.3113Z" fill="white"/>
<path d="M39.5344 12.0471C39.3698 11.943 39.2107 11.8334 39.0461 11.7238C39.2272 11.806 39.3973 11.9156 39.5344 12.0471Z" fill="white"/>
</g>
<defs>
<clipPath id="clip0">
<rect width="151" height="40" fill="white"/>
</clipPath>
</defs>
</svg>
