<svg width="16" height="14" viewBox="0 0 16 14" fill="none" xmlns="http://www.w3.org/2000/svg">
<path d="M7.38462 1.90909V8.90909C7.38462 9.59848 7.25481 10.2564 6.99519 10.8828C6.73558 11.5092 6.38462 12.0511 5.94231 12.5085C5.5 12.9659 4.97596 13.3288 4.37019 13.5973C3.76442 13.8658 3.12821 14 2.46154 14H1.84615C1.67949 14 1.53526 13.937 1.41346 13.8111C1.29167 13.6851 1.23077 13.536 1.23077 13.3636V12.0909C1.23077 11.9186 1.29167 11.7694 1.41346 11.6435C1.53526 11.5175 1.67949 11.4545 1.84615 11.4545H2.46154C3.14103 11.4545 3.72115 11.206 4.20192 10.7088C4.68269 10.2116 4.92308 9.61174 4.92308 8.90909V8.59091C4.92308 8.32576 4.83333 8.10038 4.65385 7.91477C4.47436 7.72917 4.25641 7.63636 4 7.63636H1.84615C1.33333 7.63636 0.897436 7.45076 0.538462 7.07955C0.179487 6.70833 0 6.25758 0 5.72727V1.90909C0 1.37879 0.179487 0.92803 0.538462 0.556818C0.897436 0.185606 1.33333 0 1.84615 0H5.53846C6.05128 0 6.48718 0.185606 6.84615 0.556818C7.20513 0.92803 7.38462 1.37879 7.38462 1.90909ZM16 1.90909V8.90909C16 9.59848 15.8702 10.2564 15.6106 10.8828C15.351 11.5092 15 12.0511 14.5577 12.5085C14.1154 12.9659 13.5913 13.3288 12.9856 13.5973C12.3798 13.8658 11.7436 14 11.0769 14H10.4615C10.2949 14 10.1506 13.937 10.0288 13.8111C9.90705 13.6851 9.84615 13.536 9.84615 13.3636V12.0909C9.84615 11.9186 9.90705 11.7694 10.0288 11.6435C10.1506 11.5175 10.2949 11.4545 10.4615 11.4545H11.0769C11.7564 11.4545 12.3365 11.206 12.8173 10.7088C13.2981 10.2116 13.5385 9.61174 13.5385 8.90909V8.59091C13.5385 8.32576 13.4487 8.10038 13.2692 7.91477C13.0897 7.72917 12.8718 7.63636 12.6154 7.63636H10.4615C9.94872 7.63636 9.51282 7.45076 9.15385 7.07955C8.79487 6.70833 8.61538 6.25758 8.61538 5.72727V1.90909C8.61538 1.37879 8.79487 0.92803 9.15385 0.556818C9.51282 0.185606 9.94872 0 10.4615 0H14.1538C14.6667 0 15.1026 0.185606 15.4615 0.556818C15.8205 0.92803 16 1.37879 16 1.90909Z" fill="#FAAA4C"/>
</svg>
