<svg width="21" height="15" viewBox="0 0 21 15" fill="none" xmlns="http://www.w3.org/2000/svg">
<path d="M10.4999 3.34302C8.20748 3.34302 6.34229 5.20821 6.34229 7.50065C6.34229 9.79309 8.20748 11.6583 10.4999 11.6583C12.7924 11.6583 14.6575 9.79309 14.6575 7.50065C14.6575 5.20821 12.7924 3.34302 10.4999 3.34302ZM10.4999 10.2583C8.97925 10.2583 7.74229 9.02131 7.74229 7.50065C7.74229 5.97999 8.97925 4.74302 10.4999 4.74302C12.0206 4.74302 13.2575 5.97999 13.2575 7.50065C13.2575 9.02131 12.0206 10.2583 10.4999 10.2583Z" fill="white"/>
<path d="M10.5 0.609619C6.0638 0.609619 1.96872 3.19806 0.0676332 7.20428C-0.0226012 7.39466 -0.0226012 7.61546 0.0679744 7.8055C1.97521 11.8066 6.06995 14.3916 10.5 14.3916C14.93 14.3916 19.0248 11.8066 20.932 7.80549C21.0226 7.61546 21.0226 7.39465 20.9324 7.20427C19.0313 3.19805 14.9362 0.609619 10.5 0.609619ZM10.5 12.9916C6.71903 12.9916 3.21559 10.8482 1.48131 7.50369C3.21047 4.15509 6.71356 2.00962 10.5 2.00962C14.2864 2.00962 17.7895 4.15509 19.5187 7.50369C17.7844 10.8482 14.281 12.9916 10.5 12.9916Z" fill="white"/>
</svg>
