<svg width="20" height="20" viewBox="0 0 20 20" fill="none" xmlns="http://www.w3.org/2000/svg">
<path fill-rule="evenodd" clip-rule="evenodd" d="M1 0C0.447715 0 0 0.447715 0 1C0 1.55228 0.447715 2 1 2H19C19.5523 2 20 1.55228 20 1C20 0.447715 19.5523 0 19 0H1ZM0 10C0 9.44771 0.447715 9 1 9H19C19.5523 9 20 9.44771 20 10C20 10.5523 19.5523 11 19 11H1C0.447715 11 0 10.5523 0 10ZM0 19C0 18.4477 0.447715 18 1 18H19C19.5523 18 20 18.4477 20 19C20 19.5523 19.5523 20 19 20H1C0.447715 20 0 19.5523 0 19Z" fill="white"/>
</svg>
